<?xml version="1.0" standalone="no"?>
<!DOCTYPE svg PUBLIC "-//W3C//DTD SVG 20010904//EN"
 "http://www.w3.org/TR/2001/REC-SVG-20010904/DTD/svg10.dtd">
<svg version="1.0" xmlns="http://www.w3.org/2000/svg"
 width="500.000000pt" height="500.000000pt" viewBox="0 0 500.000000 500.000000"
 preserveAspectRatio="xMidYMid meet">

<g transform="translate(0.000000,500.000000) scale(0.100000,-0.100000)"
fill="#000000" stroke="none">
<path d="M0 2500 l0 -2500 2500 0 2500 0 0 2500 0 2500 -2500 0 -2500 0 0
-2500z m940 605 c0 -31 -139 -526 -152 -542 -16 -20 -561 -18 -577 1 -9 11 4
71 59 267 39 140 75 264 80 277 l10 22 290 0 290 0 0 -25z m327 -241 c6 -17
-63 -280 -80 -301 -14 -19 -300 -18 -316 1 -9 11 -2 46 28 155 23 78 43 146
46 152 4 5 75 9 161 9 133 0 155 -2 161 -16z m570 -76 c28 -32 263 -595 256
-614 -3 -8 -13 -19 -23 -24 -28 -15 -55 15 -89 95 l-29 70 -158 0 -158 0 -31
-74 c-37 -87 -60 -109 -93 -85 -12 8 -22 21 -22 27 0 25 251 603 267 615 25
19 57 15 80 -10z m2536 5 c8 -10 61 -133 117 -273 56 -140 105 -261 109 -269
5 -8 50 91 120 267 67 166 119 283 128 286 23 9 51 -2 58 -24 6 -18 -225 -593
-248 -617 -22 -23 -71 -26 -95 -6 -14 11 -66 123 -137 298 -64 154 -118 289
-121 301 -6 22 18 54 40 54 7 0 20 -8 29 -17z m-1689 -15 c8 -13 8 -23 0 -35
-10 -16 -32 -18 -188 -21 l-176 -2 0 -100 0 -100 154 0 c127 0 157 -3 170 -16
9 -8 16 -21 16 -28 0 -31 -25 -36 -182 -36 l-158 0 0 -105 0 -105 176 -2 c156
-3 178 -5 188 -20 8 -13 8 -23 0 -35 -10 -16 -34 -18 -220 -21 -188 -2 -210
-1 -221 15 -18 24 -19 603 -1 621 9 9 67 12 222 10 186 -3 210 -5 220 -20z
m740 6 c64 -22 147 -100 177 -166 33 -73 34 -211 3 -279 -31 -67 -87 -124
-152 -156 -53 -26 -67 -28 -205 -31 -106 -3 -152 0 -162 8 -13 10 -15 61 -15
314 0 222 3 305 12 314 19 19 283 16 342 -4z m800 -6 c8 -13 8 -23 0 -35 -10
-16 -32 -18 -188 -21 l-176 -2 0 -100 0 -100 154 0 c127 0 157 -3 170 -16 9
-8 16 -21 16 -28 0 -31 -25 -36 -182 -36 l-158 0 0 -105 0 -105 176 -2 c156
-3 178 -5 188 -20 8 -13 8 -23 0 -35 -10 -16 -34 -18 -220 -21 -188 -2 -210
-1 -221 15 -18 24 -19 603 -1 621 9 9 67 12 222 10 186 -3 210 -5 220 -20z
m-3736 -344 c3 -24 -65 -273 -80 -291 -15 -18 -301 -18 -316 0 -8 9 0 51 28
152 22 76 42 145 44 152 4 11 40 13 163 11 151 -3 158 -4 161 -24z m660 0 c2
-17 -57 -244 -129 -486 l-20 -68 -288 0 c-242 0 -290 2 -294 14 -5 12 123 490
147 552 5 12 55 14 293 12 283 -3 288 -3 291 -24z m1825 -196 c23 -28 22 -67
-5 -95 -54 -58 -148 4 -118 78 21 50 87 60 123 17z"/>
<path d="M1787 2678 c-3 -7 -30 -73 -61 -145 l-55 -133 120 0 c65 0 119 4 119
9 0 8 -109 273 -115 279 -1 2 -5 -3 -8 -10z"/>
<path d="M3160 2475 l0 -245 83 0 c196 0 298 83 298 244 0 82 -23 137 -77 184
-55 49 -100 62 -213 62 l-91 0 0 -245z"/>
</g>
</svg>
